<?xml version="1.0" encoding="UTF-8"?><svg id="Layer_1" xmlns="http://www.w3.org/2000/svg" viewBox="0 0 427.53 401.77"><defs><style>.cls-1{fill:#c38b2a;}.cls-2{fill:#1c4532;}</style></defs><path class="cls-2" d="M292.79,120.45c31.12,3.73,63.17,10.35,91.34,24.35,24.47,12.17,44.71,26.97,43.34,56.99-4.57,99.53-86.84,185.64-184.91,198.18C116.85,416.04,5.41,322.31.18,195.99-3.32,111.53,45.76,22.58,132.27,3.29c73-16.28,143.62,29.43,158.55,102.29,1,4.89,1.9,9.88,1.96,14.88ZM185.23,100.91c.25.35,3.36,1.26,4.05,1.05.78-.23,5.64-4.18,6.59-5.02,21.83-19.15,23.1-47.07,6.64-70.35-5.1-7.22-6.48-7.61-15.07-9.55-6.2-1.4-12.56-2.28-18.9-2.64,6.34,5.3,12.06,11.04,16.44,18.13,12.76,20.67,12.39,41.89,2.45,63.58-.4.88-2.57,4.27-2.21,4.79ZM161.67,98.04c2.31-.88,6.93.47,8.49-1.1,1.17-1.18,3.85-5.9,4.73-7.58,13.04-24.85,3.7-50.35-18.03-65.99-2.59-1.87-11.41-7.37-14.23-7.5-2.53-.12-10.45,2.13-13.34,2.9-6.73,1.78-14.03,4.27-20.37,7.15-.66.3-9.63,4.81-9.17,5.13,22.22,1.7,42.46,13.39,53.52,32.85,5.97,10.51,8.1,22.13,8.4,34.14ZM221.05,30.33c6.27,13.97,8.49,29.11,4.89,44.18s-12.33,26.66-24.28,35.83c-.72.82.9,1.97,1.55,2.11.89.19,5.17-1.41,6.34-1.83,24.33-8.74,36.77-31.71,32.33-57.13-.43-2.49-1.34-6.99-2.41-9.18-1.29-2.62-10.79-9.4-13.67-11.32-.52-.35-4.56-2.86-4.75-2.67ZM89.54,44.56c-2.4.04-9.95.35-11.85,1.19-3.62,1.6-14.19,12.64-17.23,16.08-.94,1.06-1.84,2.32-2.7,3.45,24.82-5.61,51.4-.6,68.8,18.82,5.54,6.19,9.7,13.43,13.02,21.03.38.28.72.14,1.1.01.37-.12,5.9-3.04,6.16-3.28.36-.35.32-.64.37-1.08.73-6.12-.55-15.88-2.54-21.76-7.83-23.1-31.75-34.85-55.12-34.46ZM276.81,262.07c4.64-.98,9.34-2.74,13.75-4.54,14.17-5.76,40.59-18.8,33.24-37.92-.47-1.22-2.75-4.65-2.8-5.17-.12-1.28,1.16-5.52,1.39-7.28.38-2.94.35-5.9.78-8.82,17.38,11.15,21.84,32.68,8.32,49.05-1.99,2.41-4.59,4.23-6.51,6.71,11.38-3.04,22.83-7.39,33.56-12.24,2.92-1.32,9.89-4.23,12.05-6.05,1.22-1.03,2.65-5.38,3.09-7.05,7.39-27.78-28.26-45.22-49.24-52.87-11.98-4.36-24.82-7.74-37.44-9.37-.37,1.24-1.65,5.38-2.65,5.85l-16.21,3.16c1.2-4.06,3.29-7.78,4.71-11.76,2.58-7.23,4.31-15,5.06-22.64-4.94,4.73-9.88,9.64-16.11,12.68l-4.91-13.2c4.95-3.29,9.27-7.09,12.77-11.89,2.58-3.55,7.26-11.36,7.54-15.63.25-3.85-1.45-8.38-2.19-12.14l-3.92,8.57c-3.28,5.96-7.34,11.62-12.37,16.24-1,.92-4.86,4.24-5.81,4.69-.42.2-.94.37-1.37.13-.5-2.1-8.03-9.52-8.04-10.61-.01-.84,2.95-2.38,3.8-3.09,9.73-8.06,20.27-28.01,17.26-40.78-.96-4.09-5.25-9.98-8.02-13.16.6,14.59-4.1,28.68-12.74,40.31-1.1,1.49-6.77,8.37-8.14,8.5-1.81.17-5.64-6.16-9.19-5.19-1.87.51-6.96,3.67-8.92,4.84-5.51,3.27-10.92,7.19-15.69,11.46-.86.77-5.24,5.52-5.63,5.6-.51.11-.6-.28-.83-.58-4.54-6.17-6.91-9.88-14.41-13.11-26.44-11.4-52.93,11.12-54.1,38.13-.3,6.88,1.85,11.66,2.77,17.93.06.39.25.62-.2.93-4.02.34-8.08.59-12.04,1.36-1.72.34-4.6,1.6-5.94,1.69-1.54.1-4.07-.67-5.74-.73-18.55-.62-34.43,2.6-48.54,15.21-8.03,7.17-17.6,21.79-19.27,32.5-.18,1.13-.35,2.1.44,3,1.31,1.49,7.98,5.33,10.09,6.57,14.29,8.41,36.46,18.37,52.46,22.49.58.15,1.13.34,1.74.25-1.77-2.34-4.28-4.11-6.15-6.34-12.7-15.17-10.11-34.23,4.33-47.07.67-.59,7.2-5.7,7.61-5.24-.14,5.36.42,10.71,1.03,16.02-20.57,22.36,9.8,38.75,27.94,46.07,4.93,1.99,10.03,3.67,15.2,4.89,1.82,1.01,8.06,2.3,10.42,2.8,14.8,3.17,31.66,4.58,46.79,4.8,3.6.05,7.26.09,10.86,0,10.35-.26,21.39-1.12,31.64-2.57,2.6-.37,24.35-4.14,24.48-5.39ZM30.96,108.91c17.47-11.13,39.37-15.06,59.46-9.31,12.57,3.6,23.69,11.64,32.72,20.89.51.13.58-.32.83-.58.5-.54,4-5.02,4.02-5.36.03-.53-2.14-5.57-2.57-6.48-14.48-31.07-50.18-38.5-79.6-23.58-4.43,2.24-5.45,4.66-7.8,8.86-.97,1.73-7.61,14.86-7.05,15.58ZM114.6,139.68c.07-2,2.02-4.73.89-6.49-.99-1.55-5.98-6.19-7.6-7.62-26.01-22.89-59.69-16.51-83.62,5.79-2.64,2.46-2.81,2.85-3.79,6.35-2.05,7.37-3.01,15.43-4.37,22.96.58.13.74-.2,1.1-.53,1.19-1.1,2.44-3.12,3.6-4.37,10.16-10.88,24.19-19.66,38.75-23.17,18.94-4.57,37.61-.88,55.04,7.07ZM388.82,225.28c13.84-10.25,32.67-24.32,20.45-43.34-12.3-19.16-48.17-32.4-69.37-38.17-15.42-4.2-31.23-7.34-47.15-8.79.12,5.96-.51,11.94-1.81,17.74,15.56,2.67,31.02,6.46,45.61,12.51,25.19,10.43,55.26,29.2,51.79,60.64l.48-.58ZM113.15,160.68c-.77-1.49-.09-3.24-.44-4.81s-4.86-3.43-6.37-4.13c-30.17-14.01-61.71-5.9-81.11,20.77-3.29,4.52-10.67,17.38-10.58,22.73.13,6.88,6.06,14.87,10.87,19.39,6.17-23.02,23.56-41.99,45.9-50.24,13.23-4.88,27.82-6.03,41.73-3.72ZM249.66,282.71c-43.81,3.65-88.33.56-131.08-9.59-35.34-8.39-70.3-21.56-98.84-44.36,11.98,36.29,50.71,60.16,85.53,71.07,47.1,14.76,93.65,10.58,137.03-12.71l7.36-4.4ZM407.35,229.13c-9.87,8.26-21.12,14.58-32.25,20.98-4.45,9.7-9.28,19.19-14.72,28.37-2.54,4.3-5.75,8.38-7.72,12.92,13.38-7.33,25.46-17.11,35.49-28.59,8.49-9.72,15.82-21.11,19.19-33.67ZM103.19,254.1v.36c.24-.12.24-.24,0-.36ZM355.03,259.18l-25.48,8.73c-46.96,63.65-125.38,104.01-205.66,91.87-4.56-.69-9.16-2.03-13.62-2.67-.4-.06-1.22-.43-1.46,0,14.68,9.42,31.35,17.23,48.16,22.09,12.07,3.49,16.68,3.39,29.09,1.57,24.19-3.54,48.86-11.68,70.49-22.93,41.73-21.7,76.44-57.27,98.48-98.67ZM306.5,274.02l-27.05,5.35c-46.46,37.44-106.9,52.16-165.37,37.71-30.14-7.45-53.99-19.98-77.69-39.62-.29-.24-.73-.96-1.09-.36,7.26,14.1,16.18,27.37,26.45,39.46,3.63,4.27,8.71,10.63,13.5,13.29s12.37,5.58,17.8,7.54c72.07,26.05,150.41.69,202.94-51.96l10.51-11.41ZM303.25,344.63c16.16-3.24,32.57-8.62,47.08-16.47,12.81-6.93,17.67-13.11,26-24.7,4.96-6.9,9.58-14.08,13.46-21.66-2.64,1.38-4.6,3.89-6.87,5.8-10.64,8.95-23.81,17.1-36.45,22.94-3.75,1.73-11.34,4.01-14.23,6.05-4.17,2.93-9.85,10.35-13.95,14.29-4,3.83-8.37,7.34-12.51,11.03-.81.72-2.21,1.72-2.52,2.72ZM323.16,354.41c-11.35,3.08-22.85,5.37-34.58,6.51-2.68.26-7.27-.06-9.6.54-3.3.84-13.38,7.74-17.36,9.79-12.39,6.39-24.27,10.08-37.03,15.11-.48.19-1.63.45-1.72.99,35.55-1.83,71.04-12.69,100.3-32.94Z"/><path class="cls-1" d="M152.62,262.43c-2.33-1.29-7.21-5.8-9.42-7.78-.67-.6-2.42-2.91-2.59-3.01-.11-.07-.63.34-.66.3v-1.1s-.71.36-.71.36c-.02-.45-.09-.89-.36-1.27-2.07-2.91-4.71-5.51-6.68-8.53-10.59-16.15-15.08-38.67-11.2-57.57,25.69-4.4,54.88,3.89,72.37,23.56,15.07,16.95,19.28,40.54,16.47,62.65-15.13-.22-32-1.64-46.79-4.8-2.36-.5-8.59-1.79-10.42-2.8ZM133.22,199.28c-1.1-1.24-2.14-3.13-3.22-4.2-.39-.38-.62-.85-1.27-.72,1.94,6.9,5.86,13.15,10.52,18.54,11.94,13.8,31.78,18.93,45.68,30.72,6.03,5.12,10.78,11.69,15.28,18.13.3.43.01.88.94.68.18-1.81-.61-3.48-1.18-5.16-11.85-34.95-45.43-33.88-66.74-58Z"/><path class="cls-1" d="M220.69,270.04c-2.5-15.54.05-33.16,6.7-47.43,13.34-28.6,46.28-42.13,76.71-38.7.99.11,5.96.85,6.38,1.22s1.02,3.58,1.08,4.35c2.33,27.26-10,56.98-33.4,71.61-1.18.74-1.26.08-1.35.98-.13,1.25-21.88,5.02-24.48,5.39-10.25,1.46-21.29,2.32-31.64,2.57ZM300.35,192.91c-6.98,2.03-13.47,5.47-19.16,9.99-16.35,12.97-21,36.73-38.04,49.58l-12.86,9.59,4.46-.61c33.7-9.35,36.22-42.75,58.9-62.77,1.84-1.62,4.21-2.97,5.95-4.55.4-.37.91-.53.76-1.23Z"/><path class="cls-1" d="M253.54,184.84c-5.09,2.76-9.98,5.84-14.46,9.54-5.59,4.62-9.93,10.24-14.41,15.91.57-4.03,1.87-8.06,2.16-12.13,1.37-19.13-7.31-36.21-5.06-55.75.41-3.52,1.45-6.76,2.15-10.16.05-.24.65-1.3-.17-1.24-1.08.08-5.27,9.34-5.8,10.85-10.1,28.7,9.47,52.82-2.7,82.39-.15.36-1.03,2.66-1.45,2.35-5.24-15.28-15.5-28.36-28.98-37.19-1.4-14.59,3.51-29.79,10.94-42.22,4.8-8.04,13.48-17.33,21.18-22.63,1.58-1.09,7.69-5.03,9.16-5.35,1.01-.21,3.13,1.81,3.99,2.56,2.6,2.28,5.6,5.8,7.74,8.55,11.68,15.02,18.13,35.49,15.69,54.53Z"/><path class="cls-2" d="M176.88,163.58l-2.72,14.13c-19.01-1.88-33.91-19.9-24.57-38.7,8.05-16.21,31.81-16.95,38.06.8-1.69,1.35-6.65,13.36-7.38,13.61-1.62.54-5.12-2.57-5.49-4.21-.55-2.47.71-3.79-1.34-6.27-3.71-4.48-9.83-.91-11.69,3.53-3.96,9.41,6.72,16.85,15.13,17.12Z"/></svg>